<?xml version="1.0" standalone="no"?>
<!DOCTYPE svg PUBLIC "-//W3C//DTD SVG 20010904//EN"
 "http://www.w3.org/TR/2001/REC-SVG-20010904/DTD/svg10.dtd">
<svg version="1.0" xmlns="http://www.w3.org/2000/svg"
 width="300.000000pt" height="300.000000pt" viewBox="0 0 300.000000 300.000000"
 preserveAspectRatio="xMidYMid meet"
 >

<g transform="translate(0.000000,300.000000) scale(0.100000,-0.100000)"
fill="white" stroke="none">
<path d="M1460 2915 c0 -2 10 -10 23 -16 20 -11 21 -11 8 4 -13 16 -31 23 -31
12z"/>
<path d="M1240 2895 c7 -8 17 -15 22 -15 5 0 3 7 -6 15 -8 8 -18 15 -22 15 -3
0 -1 -7 6 -15z"/>
<path d="M1273 2853 c-7 -30 2 -40 21 -23 12 10 21 8 46 -10 34 -24 34 -24 19
17 -8 25 -17 32 -45 35 -30 3 -35 1 -41 -19z"/>
<path d="M1508 2851 c-4 -28 -3 -28 17 -15 20 13 25 12 48 -6 34 -27 37 -25
24 9 -18 49 -82 57 -89 12z"/>
<path d="M1451 2817 c-2 -17 32 -122 36 -112 2 6 -5 35 -16 65 -11 30 -20 51
-20 47z"/>
<path d="M1629 2756 c8 -10 28 -24 45 -33 29 -15 30 -15 17 1 -8 10 -28 24
-45 33 -29 15 -30 15 -17 -1z"/>
<path d="M1870 2755 c-11 -13 -10 -14 4 -9 9 3 16 10 16 15 0 13 -6 11 -20 -6z"/>
<path d="M1019 2737 c13 -15 33 -29 43 -33 15 -5 17 -12 12 -42 -4 -20 -12
-43 -18 -51 -6 -8 8 -2 31 13 l42 28 31 -22 c36 -25 35 -25 10 -57 -16 -20
-17 -29 -9 -46 10 -17 7 -23 -12 -38 -38 -29 -52 -25 -34 11 17 34 20 86 4 95
-14 9 -44 -19 -64 -62 -15 -32 -15 -36 0 -59 16 -24 15 -27 -2 -46 -10 -11
-25 -24 -34 -28 -14 -8 -15 -3 -11 40 5 50 -10 86 -30 74 -6 -4 -19 -26 -30
-50 -20 -47 -15 -74 19 -92 14 -8 12 -14 -13 -46 -35 -43 -45 -46 -38 -7 6 29
-18 91 -36 91 -16 0 -30 -37 -30 -79 0 -31 6 -43 26 -58 l26 -19 -23 -45 -23
-44 -8 45 c-7 44 -41 86 -59 74 -5 -3 -9 -27 -9 -53 0 -50 20 -81 53 -81 20 0
21 -11 5 -65 l-11 -40 -11 27 c-15 34 -55 78 -73 78 -28 0 -5 -103 27 -120 10
-6 28 -10 39 -10 19 0 21 -6 21 -52 l0 -53 -36 43 c-62 73 -114 49 -61 -29 18
-27 31 -35 59 -37 33 -3 37 -6 47 -47 15 -61 15 -61 -29 -21 -41 37 -90 49
-90 21 0 -8 14 -31 32 -50 27 -32 36 -36 70 -33 37 3 40 1 58 -39 10 -24 17
-43 15 -43 -3 0 -19 9 -37 20 -37 22 -98 27 -98 8 0 -15 36 -50 68 -67 19 -10
30 -10 55 0 29 12 32 11 59 -21 15 -19 28 -37 28 -41 0 -3 -20 0 -46 9 -37 12
-50 12 -72 2 l-27 -12 30 -24 c40 -32 90 -41 114 -20 24 22 28 21 68 -14 l34
-30 -59 0 c-42 0 -63 -5 -73 -16 -15 -19 -4 -28 53 -44 41 -12 70 -3 87 27 8
15 13 15 55 -8 l46 -24 -43 -6 c-48 -8 -87 -28 -87 -45 0 -14 33 -24 82 -24
30 0 41 5 55 28 9 15 18 28 19 30 1 2 28 -4 59 -14 l56 -18 -61 -27 c-33 -15
-60 -30 -60 -32 0 -7 55 8 110 29 31 11 78 17 150 17 90 1 112 -2 155 -22 52
-24 95 -35 95 -26 0 3 -27 18 -59 34 l-59 28 55 17 c30 10 56 16 57 14 1 -2
10 -15 19 -30 14 -23 25 -28 55 -28 52 0 82 10 82 27 0 17 -58 43 -97 43 l-28
0 25 20 c41 32 56 33 85 4 20 -20 32 -25 53 -20 49 12 82 28 82 41 0 19 -54
35 -97 28 l-38 -5 35 30 c41 36 43 37 60 17 7 -8 24 -15 37 -15 32 0 103 39
103 57 0 22 -51 27 -97 11 -24 -9 -43 -13 -43 -9 1 3 14 21 30 40 27 32 31 33
59 22 23 -10 34 -10 53 -1 33 18 68 51 68 67 0 20 -60 16 -98 -7 -18 -11 -35
-20 -37 -20 -3 0 5 20 17 45 20 41 25 45 50 40 15 -4 36 -4 47 0 20 6 61 63
61 84 0 24 -51 10 -90 -25 -44 -40 -44 -40 -29 21 10 41 14 44 47 47 28 2 41
10 59 37 50 75 7 99 -56 31 l-36 -39 0 46 c0 44 2 47 32 55 21 5 38 19 48 38
19 36 20 90 2 90 -19 0 -53 -39 -67 -75 -13 -34 -23 -24 -33 33 -6 29 -4 34
20 43 15 6 31 16 35 22 11 16 10 105 -1 111 -17 11 -44 -22 -56 -70 l-12 -49
-23 44 c-21 42 -21 45 -5 57 10 8 23 15 29 17 24 8 1 127 -24 127 -17 0 -32
-43 -32 -87 1 -23 0 -43 -2 -43 -1 0 -17 18 -35 40 l-32 40 28 24 c26 23 27
25 13 65 -7 22 -21 48 -31 57 -16 14 -18 14 -28 -5 -14 -25 -14 -62 -1 -95 13
-35 0 -33 -38 7 l-33 34 18 31 c18 31 17 31 -12 73 -37 53 -52 58 -61 23 -6
-25 -4 -38 21 -97 7 -16 4 -16 -28 3 -32 19 -35 24 -26 47 8 21 5 29 -25 59
-36 36 -37 33 20 67 6 4 30 -7 53 -23 22 -17 43 -30 45 -30 2 0 -4 21 -14 48
-18 47 -18 47 3 71 l22 24 -22 -14 c-13 -8 -23 -18 -23 -23 0 -4 -21 -5 -46
-1 -52 7 -64 -1 -64 -46 0 -15 -7 -32 -15 -39 -18 -15 -10 -56 16 -85 10 -11
17 -24 16 -28 -1 -5 9 -15 23 -22 25 -14 25 -14 -13 -15 -45 0 -77 -15 -77
-35 0 -24 72 -19 105 7 22 17 31 19 44 10 9 -7 26 -17 39 -24 33 -17 27 -30
-12 -23 -22 5 -44 1 -65 -9 -51 -27 -38 -47 30 -48 29 0 47 6 66 23 l25 24 33
-40 c37 -43 38 -53 7 -36 -28 15 -74 14 -97 -2 -17 -13 -17 -15 6 -30 29 -21
78 -22 106 -2 18 13 22 13 35 -3 16 -18 38 -57 38 -67 0 -3 -14 2 -31 10 -34
18 -90 17 -96 -2 -6 -17 57 -55 82 -49 11 2 29 7 40 11 17 5 23 0 33 -28 7
-18 12 -42 12 -53 -1 -18 -1 -18 -14 -2 -19 25 -64 47 -87 41 -51 -14 13 -77
72 -71 36 3 37 2 43 -32 12 -72 8 -78 -25 -37 -22 27 -38 37 -60 37 -34 0 -35
-6 -12 -40 23 -34 33 -40 71 -40 29 0 32 -3 31 -27 -1 -16 -5 -41 -8 -58 l-7
-30 -16 37 c-16 37 -43 58 -73 58 -38 0 17 -93 58 -98 31 -4 33 -18 11 -70
l-16 -37 -10 35 c-12 43 -35 70 -60 70 -43 0 -11 -92 38 -111 23 -8 24 -10 10
-36 -8 -16 -21 -37 -30 -48 -15 -19 -15 -18 -16 20 0 44 -22 85 -46 85 -10 0
-14 -13 -14 -49 0 -42 4 -52 28 -70 l27 -20 -38 -38 -38 -38 7 42 c8 51 -17
103 -40 83 -26 -20 -28 -72 -5 -103 23 -32 19 -41 -32 -71 -32 -19 -32 -19
-24 0 16 37 17 90 2 102 -32 27 -63 -54 -42 -115 6 -19 2 -24 -30 -37 -52 -22
-62 -20 -36 8 23 25 31 80 14 97 -7 7 -19 0 -38 -22 -22 -27 -26 -40 -22 -71
3 -21 1 -40 -3 -43 -5 -3 -44 -10 -87 -15 -72 -9 -218 0 -243 15 -5 3 -4 19 2
35 9 26 7 35 -17 66 -15 19 -32 33 -38 31 -21 -7 -20 -58 2 -88 25 -33 19 -35
-34 -13 -31 13 -36 19 -30 37 15 50 15 64 -6 97 -20 32 -22 33 -35 15 -18 -24
-18 -49 1 -85 9 -17 12 -30 8 -30 -10 0 -83 49 -83 56 0 3 10 18 22 34 17 24
20 35 12 62 -13 43 -40 49 -55 11 -7 -19 -7 -38 -1 -60 13 -42 4 -41 -39 3
l-34 35 21 17 c32 25 45 56 38 91 -8 37 -16 38 -44 9 -13 -14 -20 -35 -20 -62
0 -43 -5 -41 -39 16 l-23 38 25 9 c32 13 57 48 57 83 0 53 -57 24 -75 -38
l-12 -39 -12 29 c-20 49 -18 69 6 75 32 9 61 36 69 66 8 34 0 41 -34 29 -17
-6 -34 -24 -47 -49 l-19 -40 -8 40 c-12 71 -12 73 28 72 28 -1 42 5 60 27 33
37 31 56 -5 56 -21 0 -38 -10 -62 -37 l-32 -38 6 40 c4 22 7 46 7 53 0 7 15
12 39 12 28 0 49 8 70 26 38 31 39 40 6 48 -27 7 -80 -15 -88 -36 -2 -7 -8
-10 -12 -6 -8 7 12 75 24 83 5 2 22 -1 38 -7 26 -10 36 -8 64 8 19 11 34 27
34 35 0 20 -58 23 -94 4 -38 -19 -38 -16 -6 36 25 38 27 39 48 24 26 -18 66
-19 102 -3 30 13 32 24 6 38 -25 13 -67 13 -92 0 -28 -16 -23 0 13 37 l32 33
22 -21 c16 -15 35 -21 65 -21 57 1 71 17 39 44 -20 16 -34 19 -67 14 -24 -3
-43 -4 -43 -1 0 3 18 17 40 31 l39 26 27 -21 c30 -24 104 -30 104 -8 0 24 -24
37 -69 37 l-46 1 38 20 c30 16 45 18 66 11 39 -14 81 -4 81 18 0 34 -59 40
-97 10 -38 -30 -48 -24 -19 11 29 34 34 69 11 69 -8 0 -19 17 -26 38 -6 21
-16 39 -23 40 -48 4 -96 18 -121 37 -50 36 -61 40 -36 12z"/>
<path d="M1216 2729 c-21 -16 -36 -29 -32 -29 8 0 86 51 86 56 0 9 -18 0 -54
-27z"/>
<path d="M1415 2711 c-3 -5 -1 -12 5 -16 5 -3 10 1 10 9 0 18 -6 21 -15 7z"/>
<path d="M1333 2683 c9 -2 23 -2 30 0 6 3 -1 5 -18 5 -16 0 -22 -2 -12 -5z"/>
<path d="M1629 2659 c-24 -16 -59 -40 -76 -52 -22 -15 -31 -28 -27 -39 5 -16
2 -16 -48 -1 -29 9 -67 17 -85 17 -17 1 -42 10 -55 21 -42 36 -104 75 -118 75
-14 0 108 -94 132 -102 9 -3 9 -15 0 -48 -8 -33 -8 -46 0 -51 7 -5 0 -17 -21
-34 -54 -46 -27 -39 40 9 35 25 67 46 71 46 4 0 38 -22 75 -49 37 -28 69 -48
71 -46 2 2 -8 35 -22 75 -14 39 -26 77 -26 85 0 7 32 36 70 64 62 45 79 61 67
61 -2 0 -24 -14 -48 -31z"/>
<path d="M1587 2543 c-10 -3 -17 -12 -15 -21 4 -19 63 -28 107 -17 l26 7 -25
19 c-24 18 -55 22 -93 12z"/>
<path d="M1315 2246 c-22 -7 -59 -22 -81 -34 l-42 -21 -6 -123 c-3 -68 -9
-144 -12 -170 -5 -41 -1 -56 37 -130 46 -86 158 -216 211 -244 44 -23 71 -8
155 80 58 60 89 104 121 167 40 83 56 159 32 159 -5 0 -10 -18 -10 -40 0 -22
-4 -48 -9 -58 -5 -9 -14 -29 -19 -44 -15 -38 -69 -49 -94 -18 -10 12 -18 28
-18 35 0 8 -8 14 -17 14 -10 1 -35 1 -56 1 -31 0 -38 4 -33 16 3 9 6 18 6 20
0 2 7 4 15 4 8 0 15 6 15 14 0 9 -9 13 -24 12 l-24 -3 26 39 26 40 59 -7 c82
-10 66 8 -22 24 -119 21 -142 21 -194 -6 -27 -13 -51 -23 -53 -21 -2 2 8 16
22 32 l26 27 -34 -6 c-31 -6 -33 -4 -35 21 0 14 -6 29 -11 33 -13 8 -19 82 -8
99 4 8 5 16 2 19 -10 10 39 41 84 53 25 7 74 16 110 20 l65 7 -85 1 c-47 0
-103 -5 -125 -12z m95 -295 c0 -19 -8 -34 -24 -44 -23 -15 -24 -15 -18 6 5 20
4 20 -11 8 -21 -16 -21 -11 -4 23 8 14 17 23 20 19 4 -3 7 -1 7 5 0 7 7 12 15
12 10 0 15 -10 15 -29z m70 23 l32 -7 -34 -31 c-68 -62 -68 -62 -57 -21 6 20
8 43 5 51 -6 16 6 17 54 8z"/>
<path d="M1548 2243 c7 -3 16 -2 19 1 4 3 -2 6 -13 5 -11 0 -14 -3 -6 -6z"/>
<path d="M2950 2110 c-68 -64 -102 -88 -169 -120 -33 -17 -61 -32 -61 -36 0
-3 5 -2 12 2 6 4 23 9 37 10 54 6 103 23 136 48 18 14 37 26 42 26 15 0 54 71
51 92 -3 17 -8 15 -48 -22z m-90 -110 c0 -5 -4 -10 -10 -10 -5 0 -10 5 -10 10
0 6 5 10 10 10 6 0 10 -4 10 -10z"/>
<path d="M480 1443 c-34 -18 -34 -19 -36 -91 -2 -39 -6 -77 -9 -82 -4 -6 -55
-10 -121 -10 -113 0 -154 -9 -154 -33 0 -24 46 -106 65 -117 44 -24 48 -46 19
-98 -15 -26 -34 -54 -41 -63 -8 -9 -13 -20 -11 -25 1 -5 -6 -23 -15 -41 -32
-61 -14 -87 42 -58 17 8 67 29 112 45 l81 30 96 -15 c54 -8 141 -19 195 -25
89 -10 100 -10 130 7 21 12 33 28 35 45 l3 26 62 -24 c34 -14 71 -29 82 -34
58 -25 276 -70 392 -81 148 -14 288 -3 378 31 28 10 84 30 125 45 41 15 94 36
118 46 l42 19 40 -41 39 -41 213 7 c204 7 215 6 268 -15 30 -12 70 -33 88 -47
30 -22 37 -24 58 -13 25 14 27 38 5 78 -6 11 -9 34 -6 52 3 25 0 33 -16 37
-10 3 -19 11 -19 19 0 7 -13 27 -30 44 -16 17 -30 37 -30 45 0 8 22 28 48 46
56 36 92 84 92 122 0 37 -24 41 -181 32 l-129 -7 0 75 c0 110 -13 122 -122
121 -86 -1 -116 -10 -307 -101 -80 -37 -190 -82 -241 -98 -35 -11 -59 -12
-100 -5 -199 36 -247 36 -553 3 -34 -3 -55 0 -72 11 -13 9 -33 16 -43 16 -24
0 -134 36 -197 65 -192 88 -234 103 -295 109 -52 5 -72 3 -100 -11z m205 -53
c28 -10 90 -37 138 -60 48 -23 140 -59 205 -81 l116 -40 108 15 c137 20 290
20 429 0 137 -20 134 -21 413 96 164 68 231 91 281 96 90 9 95 4 95 -112 0
-51 4 -95 8 -98 4 -3 56 0 116 5 59 6 118 9 132 7 23 -3 22 -6 -31 -72 -31
-38 -54 -72 -53 -75 65 -130 108 -223 108 -232 0 -7 -8 -5 -22 5 -58 42 -130
65 -219 72 -64 5 -92 11 -96 21 -4 11 -35 14 -152 12 -141 -1 -146 0 -149 20
-2 12 -5 21 -8 21 -3 0 -31 -13 -63 -29 -32 -17 -87 -39 -122 -51 -35 -12 -90
-33 -121 -46 -134 -56 -414 -53 -626 7 -56 16 -108 29 -115 29 -6 0 -56 20
-109 44 -53 24 -100 41 -103 38 -3 -3 -5 -12 -5 -21 0 -14 -18 -16 -141 -13
-94 3 -145 0 -152 -7 -6 -6 -42 -11 -79 -11 -58 0 -81 -6 -170 -45 -56 -25
-105 -44 -110 -43 -4 2 21 50 57 108 35 58 65 109 65 113 0 5 -25 38 -55 73
-30 36 -55 69 -55 75 0 5 58 9 139 9 l138 0 7 38 c3 20 6 62 6 93 0 31 3 59 7
63 12 11 133 -4 188 -24z"/>
<path d="M1025 1103 c8 -20 8 -78 -1 -105 -4 -15 1 -18 25 -18 29 0 30 2 25
30 -4 19 -2 30 5 30 6 0 11 -4 11 -10 0 -5 5 -10 10 -10 6 0 10 14 10 30 0 17
-4 30 -10 30 -5 0 -10 -4 -10 -10 0 -5 -4 -10 -10 -10 -5 0 -10 9 -10 20 0 24
32 27 50 5 17 -20 32 -8 20 16 -9 15 -22 19 -66 19 -50 0 -55 -2 -49 -17z"/>
<path d="M1230 1111 c0 -6 5 -11 10 -11 6 0 10 -22 10 -50 0 -27 -4 -50 -10
-50 -5 0 -10 -4 -10 -10 0 -5 14 -10 30 -10 17 0 30 5 30 10 0 6 -4 10 -10 10
-5 0 -10 17 -9 38 l1 37 16 -48 c9 -26 20 -46 26 -44 5 2 17 23 25 48 l16 44
3 -35 c2 -19 -1 -36 -7 -38 -24 -8 -9 -22 24 -22 19 0 35 5 35 10 0 6 -4 10
-10 10 -5 0 -10 23 -10 50 0 28 5 50 10 50 6 0 10 5 10 10 0 6 -16 10 -35 10
-19 0 -35 -4 -35 -9 0 -5 -5 -22 -11 -38 l-11 -28 -12 35 c-11 29 -18 36 -44
38 -18 2 -32 -1 -32 -7z"/>
<path d="M1438 1060 c3 -40 1 -60 -7 -60 -6 0 -11 -4 -11 -10 0 -5 14 -10 30
-10 29 0 40 13 20 25 -13 8 -13 55 -1 55 5 0 12 -18 16 -40 9 -54 28 -51 47 8
l16 47 1 -37 c1 -21 -4 -38 -10 -38 -5 0 -7 -4 -4 -10 3 -5 19 -10 36 -10 16
0 29 5 29 10 0 6 -4 10 -10 10 -5 0 -10 20 -10 44 0 25 5 48 10 51 21 13 9 26
-22 23 -26 -2 -33 -9 -44 -38 l-12 -35 -11 28 c-6 16 -11 33 -11 38 0 5 -13 9
-28 9 l-28 0 4 -60z"/>
<path d="M1625 1050 c0 -65 2 -70 22 -70 19 0 21 4 17 43 l-4 42 16 -42 c9
-24 20 -43 24 -43 5 0 16 21 24 48 l16 47 -4 -47 c-3 -46 -2 -48 23 -48 26 0
26 1 26 70 l0 71 -29 -3 c-24 -2 -31 -9 -38 -36 -10 -38 -23 -35 -31 8 -5 25
-11 30 -34 30 -28 0 -28 0 -28 -70z"/>
<path d="M1848 1113 c-22 -5 -24 -23 -3 -23 11 0 15 -12 15 -45 0 -33 -4 -45
-15 -45 -8 0 -15 -4 -15 -10 0 -5 20 -10 45 -10 25 0 45 5 45 10 0 6 -7 10
-15 10 -12 0 -15 13 -15 60 0 61 -2 64 -42 53z"/>
<path d="M515 1060 c-29 -11 -46 -35 -40 -52 11 -29 104 -56 145 -43 19 6 21
12 16 53 -2 26 -5 48 -5 50 -2 6 -98 0 -116 -8z"/>
<path d="M2315 1062 c-6 -4 -11 -26 -11 -49 l-1 -43 54 0 c57 0 107 19 117 45
13 35 -120 75 -159 47z"/>
<path d="M1160 1030 c0 -5 11 -10 25 -10 14 0 25 5 25 10 0 6 -11 10 -25 10
-14 0 -25 -4 -25 -10z"/>
<path d="M2974 1056 c-11 -8 -55 -33 -97 -54 -55 -29 -72 -42 -60 -46 9 -4 21
-2 27 4 5 5 17 10 25 10 9 0 41 17 71 37 30 20 57 38 59 39 1 2 1 8 -1 14 -2
7 -10 5 -24 -4z"/>
<path d="M474 686 c-10 -25 1 -129 14 -134 8 -2 12 7 12 27 0 28 3 31 30 31
27 0 30 -3 30 -31 0 -20 4 -29 13 -26 16 5 17 139 0 144 -7 3 -13 -8 -15 -24
-2 -22 -9 -29 -30 -31 -25 -3 -28 0 -28 27 0 31 -16 42 -26 17z"/>
<path d="M630 680 c-43 -43 -13 -130 45 -130 33 0 75 42 75 75 0 33 -42 75
-75 75 -14 0 -34 -9 -45 -20z m75 -55 c0 -43 -22 -58 -50 -35 -32 27 -10 84
30 78 16 -2 20 -11 20 -43z"/>
<path d="M760 685 c0 -8 9 -15 20 -15 18 0 20 -7 20 -60 0 -47 3 -60 15 -60
12 0 15 13 15 60 0 53 2 60 20 60 11 0 20 7 20 15 0 12 -13 15 -55 15 -42 0
-55 -3 -55 -15z"/>
<path d="M890 624 l0 -75 52 3 c64 4 80 28 19 28 -51 0 -59 27 -9 32 46 4 49
28 4 28 -25 0 -36 4 -36 15 0 10 11 15 35 15 24 0 35 5 35 15 0 11 -12 15 -50
15 l-50 0 0 -76z"/>
<path d="M1020 626 l0 -76 50 0 c38 0 50 4 50 15 0 10 -11 15 -35 15 l-34 0
-3 57 c-2 34 -8 58 -15 61 -10 3 -13 -16 -13 -72z"/>
<path d="M1210 685 c-7 -8 -10 -22 -6 -30 3 -9 -2 -27 -10 -41 -16 -23 -15
-26 1 -44 15 -16 28 -19 64 -16 26 2 46 9 45 15 -1 6 -2 20 -2 31 -1 11 -9 20
-17 20 -11 0 -13 8 -8 31 4 21 1 34 -8 40 -21 13 -45 11 -59 -6z m40 -15 c0
-5 -5 -10 -11 -10 -5 0 -7 5 -4 10 3 6 8 10 11 10 2 0 4 -4 4 -10z m-2 -78 c2
-7 -3 -12 -12 -12 -9 0 -16 7 -16 16 0 17 22 14 28 -4z"/>
<path d="M1396 684 c-9 -8 -16 -18 -16 -20 0 -18 24 -43 50 -52 31 -11 41 -32
15 -32 -8 0 -24 5 -35 12 -23 14 -33 8 -24 -16 13 -34 97 -33 109 3 9 29 -4
49 -41 61 -19 6 -34 16 -34 21 0 12 27 12 35 -1 9 -15 35 -12 35 5 0 32 -67
46 -94 19z"/>
<path d="M1520 635 c0 -53 3 -66 19 -75 26 -14 64 -13 79 2 18 18 16 138 -3
138 -10 0 -15 -15 -17 -57 -3 -50 -6 -58 -23 -58 -17 0 -20 8 -23 58 -2 42 -7
57 -17 57 -12 0 -15 -15 -15 -65z"/>
<path d="M1660 625 c0 -60 3 -75 15 -75 12 0 15 15 15 75 0 60 -3 75 -15 75
-12 0 -15 -15 -15 -75z"/>
<path d="M1707 693 c-13 -12 -7 -22 16 -25 19 -3 22 -10 25 -61 4 -77 26 -72
30 6 3 49 6 57 22 57 11 0 20 7 20 15 0 11 -13 15 -53 15 -30 0 -57 -3 -60 -7z"/>
<path d="M1834 686 c-3 -7 -4 -40 -2 -72 l3 -59 53 0 c60 0 76 18 20 23 -48 4
-52 29 -6 34 46 4 49 28 4 28 -25 0 -36 4 -36 15 0 10 11 15 35 15 24 0 35 5
35 15 0 20 -98 22 -106 1z"/>
<path d="M1976 684 c-19 -18 -19 -20 -6 -44 5 -10 23 -21 40 -25 16 -4 30 -13
30 -21 0 -16 -36 -19 -45 -4 -9 15 -35 12 -35 -5 0 -35 76 -47 104 -16 23 25
7 58 -35 73 -33 11 -39 28 -9 28 11 0 20 -4 20 -10 0 -5 7 -10 15 -10 22 0 19
27 -4 40 -28 14 -57 12 -75 -6z"/>
<path d="M2154 686 c-3 -7 -4 -40 -2 -72 l3 -59 48 0 c54 0 64 17 15 25 -32 5
-33 6 -36 63 -3 53 -16 74 -28 43z"/>
<path d="M2250 685 c0 -8 9 -15 20 -15 18 0 20 -7 20 -60 0 -47 3 -60 15 -60
12 0 15 13 15 60 0 53 2 60 20 60 11 0 20 7 20 15 0 12 -13 15 -55 15 -42 0
-55 -3 -55 -15z"/>
<path d="M2380 624 l0 -77 46 6 c52 5 73 27 74 75 0 45 -30 72 -80 72 l-40 0
0 -76z m82 20 c14 -31 1 -57 -31 -62 -19 -3 -21 1 -21 42 0 39 3 46 20 46 12
0 25 -10 32 -26z"/>
<path d="M750 482 c-29 -24 -30 -70 -1 -93 36 -30 91 -2 91 46 0 49 -53 77
-90 47z m55 -47 c0 -23 -5 -31 -21 -33 -24 -3 -38 20 -28 50 4 13 13 18 27 16
17 -2 22 -10 22 -33z"/>
<path d="M1102 484 c-31 -22 -30 -78 1 -99 34 -22 87 -3 87 31 0 20 -5 24 -30
24 -16 0 -30 -4 -30 -10 0 -5 7 -10 15 -10 8 0 15 -5 15 -11 0 -6 -10 -9 -22
-7 -18 2 -23 10 -23 33 0 28 2 30 33 27 36 -2 42 12 13 28 -26 13 -33 13 -59
-6z"/>
<path d="M1368 492 c-15 -3 -18 -14 -18 -58 l0 -55 48 3 47 3 0 50 c0 47 -1
49 -30 55 -16 3 -38 4 -47 2z m52 -32 c0 -5 -9 -10 -20 -10 -11 0 -20 5 -20
10 0 6 9 10 20 10 11 0 20 -4 20 -10z m0 -51 c0 -5 -9 -9 -20 -9 -19 0 -26 11
-14 23 8 8 34 -3 34 -14z"/>
<path d="M1503 487 c-9 -11 -43 -92 -43 -102 0 -3 7 -5 15 -5 8 0 15 5 15 10
0 6 11 10 25 10 14 0 25 -4 25 -10 0 -5 7 -10 16 -10 16 0 14 14 -11 76 -16
38 -29 48 -42 31z"/>
<path d="M1598 492 c-24 -5 -27 -112 -3 -112 8 0 15 9 15 20 0 11 4 20 10 20
5 0 15 -9 22 -20 7 -11 18 -20 25 -20 15 0 16 9 4 29 -6 9 -5 21 1 31 22 35
-18 63 -74 52z m52 -32 c0 -5 -9 -10 -20 -10 -11 0 -20 5 -20 10 0 6 9 10 20
10 11 0 20 -4 20 -10z"/>
<path d="M1765 486 c-11 -8 -16 -20 -12 -29 3 -9 2 -19 -3 -22 -16 -10 -11
-44 8 -53 9 -5 31 -7 48 -5 26 4 32 9 30 29 -1 16 -7 24 -18 24 -20 0 -24 15
-8 25 15 10 12 23 -9 34 -13 7 -23 6 -36 -3z m25 -76 c0 -5 -4 -10 -10 -10 -5
0 -10 5 -10 10 0 6 5 10 10 10 6 0 10 -4 10 -10z"/>
<path d="M2033 490 c-43 -17 -39 -109 4 -111 16 0 15 -2 -2 -9 -11 -4 -330 -9
-709 -9 -379 -1 -693 -4 -697 -7 -32 -19 34 -24 334 -24 183 0 565 3 850 7
421 5 517 9 517 20 0 10 -19 13 -72 14 -53 0 -67 3 -51 9 44 18 41 94 -4 111
-30 11 -73 -11 -73 -37 0 -11 -9 -7 -29 15 -31 33 -35 34 -68 21z m52 -39 c9
-29 -5 -52 -29 -49 -37 5 -34 68 3 68 11 0 22 -8 26 -19z m120 -16 c0 -23 -5
-31 -21 -33 -24 -3 -38 20 -28 50 4 13 13 18 27 16 17 -2 22 -10 22 -33z m-75
-19 c0 -8 10 -22 22 -30 22 -15 20 -16 -32 -16 -52 0 -54 1 -32 16 12 8 22 22
22 30 0 8 5 14 10 14 6 0 10 -6 10 -14z"/>
<path d="M630 435 l0 -55 46 0 c27 0 43 4 39 10 -3 6 -17 10 -31 10 -22 0 -24
4 -24 45 0 33 -4 45 -15 45 -12 0 -15 -13 -15 -55z"/>
<path d="M850 446 c0 -35 5 -48 22 -60 29 -20 34 -20 58 4 24 24 29 100 6 100
-10 0 -16 -14 -18 -42 -2 -31 -8 -44 -20 -46 -15 -3 -18 4 -18 42 0 34 -4 46
-15 46 -11 0 -15 -12 -15 -44z"/>
<path d="M970 435 c0 -30 5 -55 10 -55 6 0 10 12 10 28 l1 27 22 -27 c35 -43
47 -36 47 27 0 59 -17 76 -22 23 l-3 -33 -20 33 c-30 49 -45 41 -45 -23z"/>
<path d="M1200 435 l0 -55 51 0 c31 0 48 4 44 10 -3 6 -20 10 -36 10 -38 0
-34 24 4 28 37 4 34 22 -3 22 -16 0 -30 5 -30 10 0 6 14 10 30 10 17 0 30 5
30 10 0 6 -20 10 -45 10 l-45 0 0 -55z"/>
<path d="M1900 436 c0 -43 3 -56 15 -56 8 0 15 8 15 19 0 13 10 20 31 25 26 5
30 10 27 33 -3 25 -7 28 -45 31 l-43 3 0 -55z m60 19 c0 -8 -7 -15 -15 -15 -8
0 -15 7 -15 15 0 8 7 15 15 15 8 0 15 -7 15 -15z"/>
<path d="M2250 435 l0 -55 45 0 c25 0 45 5 45 10 0 6 -13 10 -30 10 -29 0 -30
2 -30 45 0 33 -4 45 -15 45 -12 0 -15 -13 -15 -55z"/>
<path d="M740 266 c-13 -17 -61 -148 -55 -154 6 -6 29 40 51 106 23 66 24 71
4 48z"/>
<path d="M1364 262 c8 -23 -16 -77 -36 -85 -10 -4 -10 -6 0 -6 15 -1 52 57 52
83 0 14 5 17 23 11 12 -3 45 -9 72 -11 39 -4 46 -3 33 6 -10 6 -47 13 -84 17
-64 6 -66 5 -60 -15z"/>
<path d="M1633 260 c-60 -36 -84 -95 -53 -131 17 -20 19 -20 9 -3 -14 24 -7
60 16 89 16 20 16 20 6 -2 -6 -12 -11 -32 -10 -45 1 -18 3 -15 9 9 4 18 12 39
19 46 6 8 8 17 4 20 -6 7 12 11 30 8 5 -1 6 3 3 8 -4 5 0 12 6 14 7 3 9 6 3 6
-5 1 -24 -8 -42 -19z"/>
<path d="M2062 255 c0 -16 2 -22 5 -12 2 9 2 23 0 30 -3 6 -5 -1 -5 -18z"/>
<path d="M660 240 c0 -17 -12 -54 -26 -83 -26 -50 -26 -51 -4 -32 40 35 66
124 40 140 -6 4 -10 -7 -10 -25z"/>
<path d="M844 205 c-17 -29 -30 -42 -34 -35 -5 8 -9 7 -13 -5 -4 -10 -3 -14 4
-9 8 4 9 -1 4 -15 -13 -42 11 -20 44 40 39 71 35 92 -5 24z"/>
<path d="M1408 233 c-8 -10 -25 -35 -37 -56 -13 -20 -32 -44 -44 -52 -12 -8
-17 -15 -11 -15 21 0 63 41 88 87 28 48 29 65 4 36z"/>
<path d="M1723 220 c-1 -17 -15 -47 -30 -67 -25 -33 -26 -35 -6 -25 32 18 53
52 53 89 0 41 -14 44 -17 3z"/>
<path d="M2070 199 c-19 -30 -39 -60 -43 -67 -7 -11 -5 -12 12 -3 23 13 75 95
69 112 -2 6 -19 -13 -38 -42z"/>
<path d="M2147 215 c-15 -19 -27 -38 -27 -43 0 -5 -10 -22 -22 -37 -20 -26
-20 -27 -1 -14 19 12 87 118 80 125 -1 2 -15 -12 -30 -31z"/>
<path d="M540 219 c-6 -11 -10 -25 -8 -30 2 -5 8 4 15 21 13 34 9 40 -7 9z"/>
<path d="M600 230 c0 -5 5 -10 10 -10 6 0 10 5 10 10 0 6 -4 10 -10 10 -5 0
-10 -4 -10 -10z"/>
<path d="M757 162 c-18 -19 -23 -42 -9 -42 4 0 16 14 25 30 20 33 10 40 -16
12z"/>
<path d="M866 164 c-15 -14 -22 -44 -11 -44 2 0 11 14 20 30 17 33 14 38 -9
14z"/>
<path d="M1007 145 c-9 -19 -13 -35 -8 -35 10 0 41 45 41 60 0 21 -17 9 -33
-25z"/>
<path d="M1048 145 c-10 -19 -14 -35 -9 -35 10 0 41 45 41 60 0 21 -15 9 -32
-25z"/>
<path d="M1097 156 c-10 -15 -15 -31 -11 -37 3 -6 12 1 20 17 20 37 12 53 -9
20z"/>
<path d="M1146 161 c-28 -31 -17 -41 19 -18 19 12 34 24 35 27 1 14 -40 7 -54
-9z"/>
<path d="M1407 162 c-18 -19 -23 -42 -9 -42 4 0 15 14 24 30 19 33 10 40 -15
12z"/>
<path d="M1732 160 c-19 -32 -13 -47 8 -20 11 14 20 28 20 33 0 14 -15 7 -28
-13z"/>
<path d="M1771 156 c-8 -13 -11 -30 -9 -37 3 -8 12 1 21 20 20 39 20 41 9 41
-5 0 -14 -11 -21 -24z"/>
<path d="M1826 147 c-23 -41 -14 -44 23 -7 36 37 37 39 13 37 -11 0 -27 -14
-36 -30z"/>
<path d="M2161 156 c-14 -15 -18 -26 -12 -30 6 -4 17 7 26 24 19 36 16 38 -14
6z"/>
<path d="M2249 152 c-7 -15 -15 -30 -17 -34 -2 -5 0 -8 5 -8 13 0 45 58 35 64
-5 3 -15 -7 -23 -22z"/>
<path d="M2287 150 c-19 -31 -21 -40 -9 -40 12 0 43 58 34 64 -5 3 -16 -8 -25
-24z"/>
<path d="M2331 154 c-13 -30 -14 -34 -3 -34 13 0 33 48 23 54 -4 3 -13 -6 -20
-20z"/>
<path d="M2380 160 c-12 -12 -18 -26 -14 -32 5 -7 10 -6 15 5 5 8 20 18 34 21
14 4 25 12 25 18 0 9 -3 9 -12 0 -15 -15 -32 -16 -23 -2 10 17 -4 11 -25 -10z"/>
<path d="M896 161 c-4 -6 -2 -11 3 -11 6 0 11 -7 11 -15 0 -23 14 -18 27 10
11 24 1 36 -13 14 -5 -8 -9 -8 -14 1 -5 9 -9 9 -14 1z"/>
<path d="M967 163 c-4 -3 -7 -13 -7 -22 1 -13 3 -13 11 2 11 19 8 33 -4 20z"/>
<path d="M1447 164 c-4 -4 -7 -14 -7 -23 0 -11 3 -12 11 -4 6 6 10 16 7 23 -2
6 -7 8 -11 4z"/>
<path d="M1620 150 c0 -5 5 -10 10 -10 6 0 10 5 10 10 0 6 -4 10 -10 10 -5 0
-10 -4 -10 -10z"/>
<path d="M2195 151 c-3 -5 -1 -12 5 -16 5 -3 10 1 10 9 0 18 -6 21 -15 7z"/>
<path d="M1250 140 c0 -5 5 -10 10 -10 6 0 10 5 10 10 0 6 -4 10 -10 10 -5 0
-10 -4 -10 -10z"/>
<path d="M1930 140 c0 -5 4 -10 9 -10 6 0 13 5 16 10 3 6 -1 10 -9 10 -9 0
-16 -4 -16 -10z"/>
</g>
</svg>
